<mxfile host="65bd71144e">
    <diagram id="7W7QFqK51x3jxO7v_evR" name="Página-1">
        <mxGraphModel dx="1587" dy="401" grid="1" gridSize="10" guides="1" tooltips="1" connect="1" arrows="1" fold="1" page="1" pageScale="1" pageWidth="827" pageHeight="1169" math="0" shadow="0">
            <root>
                <mxCell id="0"/>
                <mxCell id="1" parent="0"/>
                <mxCell id="35" value="" style="group" vertex="1" connectable="0" parent="1">
                    <mxGeometry x="230" y="570" width="450" height="150" as="geometry"/>
                </mxCell>
                <mxCell id="33" value="" style="rounded=0;whiteSpace=wrap;html=1;fontFamily=Courier New;fontSize=15;fontColor=#000000;" vertex="1" parent="35">
                    <mxGeometry width="450" height="150" as="geometry"/>
                </mxCell>
                <mxCell id="31" value="&lt;font size=&quot;1&quot; face=&quot;Courier New&quot; color=&quot;#000000&quot; style=&quot;&quot;&gt;&lt;b style=&quot;font-size: 15px;&quot;&gt;Capa de base de datos&amp;nbsp;&lt;/b&gt;&lt;/font&gt;" style="text;html=1;strokeColor=none;fillColor=none;align=center;verticalAlign=middle;whiteSpace=wrap;rounded=0;fontColor=#004C99;" vertex="1" parent="35">
                    <mxGeometry x="230" y="40" width="200" height="80" as="geometry"/>
                </mxCell>
                <mxCell id="34" value="" style="group" vertex="1" connectable="0" parent="35">
                    <mxGeometry x="50" y="40" width="170" height="80" as="geometry"/>
                </mxCell>
                <mxCell id="19" value="" style="group;fillColor=#e1d5e7;strokeColor=#9673a6;" vertex="1" connectable="0" parent="34">
                    <mxGeometry width="160" height="80" as="geometry"/>
                </mxCell>
                <mxCell id="12" value="(MySQL)" style="text;html=1;strokeColor=none;fillColor=none;align=center;verticalAlign=middle;whiteSpace=wrap;rounded=0;" vertex="1" parent="34">
                    <mxGeometry y="40" width="160" height="40" as="geometry"/>
                </mxCell>
                <mxCell id="11" value="[Servidor de base de datos]" style="text;html=1;strokeColor=none;fillColor=none;align=center;verticalAlign=middle;whiteSpace=wrap;rounded=0;" vertex="1" parent="34">
                    <mxGeometry width="160" height="40" as="geometry"/>
                </mxCell>
                <mxCell id="37" value="" style="group" vertex="1" connectable="0" parent="1">
                    <mxGeometry x="240" y="320" width="440" height="160" as="geometry"/>
                </mxCell>
                <mxCell id="36" value="" style="rounded=0;whiteSpace=wrap;html=1;fontFamily=Courier New;fontSize=15;fontColor=#000000;" vertex="1" parent="37">
                    <mxGeometry width="440" height="160" as="geometry"/>
                </mxCell>
                <mxCell id="18" value="" style="group" vertex="1" connectable="0" parent="37">
                    <mxGeometry x="40" y="40" width="170" height="80" as="geometry"/>
                </mxCell>
                <mxCell id="7" value="" style="rounded=0;whiteSpace=wrap;html=1;fillColor=#d5e8d4;strokeColor=#82b366;" vertex="1" parent="18">
                    <mxGeometry width="160" height="80" as="geometry"/>
                </mxCell>
                <mxCell id="8" value="[Servidor web]" style="text;html=1;strokeColor=none;fillColor=none;align=center;verticalAlign=middle;whiteSpace=wrap;rounded=0;" vertex="1" parent="18">
                    <mxGeometry width="160" height="40" as="geometry"/>
                </mxCell>
                <mxCell id="9" value="(PHP)" style="text;html=1;strokeColor=none;fillColor=none;align=center;verticalAlign=middle;whiteSpace=wrap;rounded=0;" vertex="1" parent="18">
                    <mxGeometry y="40" width="160" height="40" as="geometry"/>
                </mxCell>
                <mxCell id="30" value="&lt;font size=&quot;1&quot; face=&quot;Courier New&quot; color=&quot;#000000&quot; style=&quot;&quot;&gt;&lt;b style=&quot;font-size: 15px;&quot;&gt;Capa de modelo de negocio (Backend)&lt;/b&gt;&lt;/font&gt;" style="text;html=1;strokeColor=none;fillColor=none;align=center;verticalAlign=middle;whiteSpace=wrap;rounded=0;fontColor=#004C99;" vertex="1" parent="37">
                    <mxGeometry x="220" y="40" width="200" height="80" as="geometry"/>
                </mxCell>
                <mxCell id="42" value="" style="group" vertex="1" connectable="0" parent="1">
                    <mxGeometry x="240" y="40" width="540" height="250" as="geometry"/>
                </mxCell>
                <mxCell id="38" value="" style="rounded=0;whiteSpace=wrap;html=1;fontFamily=Courier New;fontSize=15;fontColor=#000000;" vertex="1" parent="42">
                    <mxGeometry width="440" height="160" as="geometry"/>
                </mxCell>
                <mxCell id="41" value="" style="group" vertex="1" connectable="0" parent="42">
                    <mxGeometry x="-60" width="500" height="160" as="geometry"/>
                </mxCell>
                <mxCell id="3" value="&lt;font size=&quot;1&quot; face=&quot;Courier New&quot; color=&quot;#000000&quot; style=&quot;&quot;&gt;&lt;b style=&quot;font-size: 15px;&quot;&gt;Capa de presentación (Frontend)&lt;/b&gt;&lt;/font&gt;" style="text;html=1;strokeColor=none;fillColor=none;align=center;verticalAlign=middle;whiteSpace=wrap;rounded=0;fontColor=#004C99;" vertex="1" parent="41">
                    <mxGeometry x="280" y="30" width="190" height="120" as="geometry"/>
                </mxCell>
                <mxCell id="39" value="" style="group" vertex="1" connectable="0" parent="41">
                    <mxGeometry x="100" y="20" width="170" height="120" as="geometry"/>
                </mxCell>
                <mxCell id="2" value="" style="rounded=0;whiteSpace=wrap;html=1;fillColor=#dae8fc;strokeColor=#6c8ebf;" vertex="1" parent="39">
                    <mxGeometry width="160" height="120" as="geometry"/>
                </mxCell>
                <mxCell id="5" value="&lt;font style=&quot;font-size: 14px;&quot;&gt;[Interfaz de usuario]&lt;/font&gt;" style="text;html=1;strokeColor=none;fillColor=none;align=center;verticalAlign=middle;whiteSpace=wrap;rounded=0;" vertex="1" parent="39">
                    <mxGeometry width="160" height="40" as="geometry"/>
                </mxCell>
                <mxCell id="6" value="&lt;font style=&quot;font-size: 14px;&quot;&gt;(HTML / CSS )&lt;br&gt;&lt;br&gt;(JS)&lt;/font&gt;" style="text;html=1;strokeColor=none;fillColor=none;align=center;verticalAlign=middle;whiteSpace=wrap;rounded=0;" vertex="1" parent="39">
                    <mxGeometry y="40" width="160" height="80" as="geometry"/>
                </mxCell>
                <mxCell id="45" value="" style="group" vertex="1" connectable="0" parent="1">
                    <mxGeometry x="-310" y="100" width="510" height="160" as="geometry"/>
                </mxCell>
                <mxCell id="43" value="" style="rounded=0;whiteSpace=wrap;html=1;fontFamily=Courier New;fontSize=15;fontColor=#000000;" vertex="1" parent="45">
                    <mxGeometry x="10" y="-20" width="400" height="160" as="geometry"/>
                </mxCell>
                <mxCell id="32" value="&lt;font face=&quot;Courier New&quot; color=&quot;#000000&quot;&gt;&lt;span style=&quot;font-size: 15px;&quot;&gt;&lt;b&gt;Capa de servicios externos (APIs)&lt;/b&gt;&lt;/span&gt;&lt;/font&gt;" style="text;html=1;strokeColor=none;fillColor=none;align=center;verticalAlign=middle;whiteSpace=wrap;rounded=0;fontColor=#004C99;" vertex="1" parent="45">
                    <mxGeometry x="20" y="20" width="190" height="80" as="geometry"/>
                </mxCell>
                <mxCell id="44" value="" style="group" vertex="1" connectable="0" parent="45">
                    <mxGeometry x="190" y="20" width="210" height="100" as="geometry"/>
                </mxCell>
                <mxCell id="13" value="" style="rounded=0;whiteSpace=wrap;html=1;fillColor=#ffe6cc;strokeColor=#d79b00;" vertex="1" parent="44">
                    <mxGeometry x="32" width="128" height="80" as="geometry"/>
                </mxCell>
                <mxCell id="15" value="[Servicios externos]" style="text;html=1;strokeColor=none;fillColor=none;align=center;verticalAlign=middle;whiteSpace=wrap;rounded=0;" vertex="1" parent="44">
                    <mxGeometry x="32" width="128" height="40" as="geometry"/>
                </mxCell>
                <mxCell id="16" value="(API mapas)&lt;br&gt;(API datos municipios)" style="text;html=1;strokeColor=none;fillColor=none;align=center;verticalAlign=middle;whiteSpace=wrap;rounded=0;spacing=2;" vertex="1" parent="44">
                    <mxGeometry x="32" y="40" width="128" height="30" as="geometry"/>
                </mxCell>
                <mxCell id="26" value="" style="endArrow=classic;html=1;fontSize=14;exitX=1;exitY=0;exitDx=0;exitDy=0;entryX=0;entryY=0.75;entryDx=0;entryDy=0;" edge="1" parent="1" source="16" target="6">
                    <mxGeometry width="50" height="50" relative="1" as="geometry">
                        <mxPoint x="260" y="290" as="sourcePoint"/>
                        <mxPoint x="310" y="240" as="targetPoint"/>
                    </mxGeometry>
                </mxCell>
                <mxCell id="23" value="" style="endArrow=classic;html=1;fontSize=14;exitX=0.75;exitY=1;exitDx=0;exitDy=0;entryX=0.75;entryY=0;entryDx=0;entryDy=0;" edge="1" parent="1" source="9" target="11">
                    <mxGeometry width="50" height="50" relative="1" as="geometry">
                        <mxPoint x="260" y="410" as="sourcePoint"/>
                        <mxPoint x="310" y="360" as="targetPoint"/>
                    </mxGeometry>
                </mxCell>
                <mxCell id="24" value="" style="endArrow=classic;html=1;fontSize=14;exitX=0.25;exitY=0;exitDx=0;exitDy=0;entryX=0.25;entryY=1;entryDx=0;entryDy=0;" edge="1" parent="1" source="11" target="9">
                    <mxGeometry width="50" height="50" relative="1" as="geometry">
                        <mxPoint x="260" y="410" as="sourcePoint"/>
                        <mxPoint x="310" y="360" as="targetPoint"/>
                    </mxGeometry>
                </mxCell>
                <mxCell id="21" value="" style="endArrow=classic;html=1;fontSize=14;exitX=0.75;exitY=1;exitDx=0;exitDy=0;entryX=0.75;entryY=0;entryDx=0;entryDy=0;" edge="1" parent="1" source="6" target="8">
                    <mxGeometry width="50" height="50" relative="1" as="geometry">
                        <mxPoint x="260" y="290" as="sourcePoint"/>
                        <mxPoint x="310" y="240" as="targetPoint"/>
                    </mxGeometry>
                </mxCell>
                <mxCell id="22" value="" style="endArrow=classic;html=1;fontSize=14;exitX=0.25;exitY=0;exitDx=0;exitDy=0;entryX=0.25;entryY=1;entryDx=0;entryDy=0;" edge="1" parent="1" source="8" target="6">
                    <mxGeometry width="50" height="50" relative="1" as="geometry">
                        <mxPoint x="260" y="290" as="sourcePoint"/>
                        <mxPoint x="310" y="240" as="targetPoint"/>
                    </mxGeometry>
                </mxCell>
            </root>
        </mxGraphModel>
    </diagram>
</mxfile>